<?xml version="1.0" encoding="utf-8"?>
<!-- Generator: Adobe Illustrator 27.7.0, SVG Export Plug-In . SVG Version: 6.00 Build 0)  -->
<svg version="1.1" id="Layer_1" xmlns="http://www.w3.org/2000/svg" xmlns:xlink="http://www.w3.org/1999/xlink" x="0px" y="0px"
	 viewBox="0 0 715.3 461.2" style="enable-background:new 0 0 715.3 461.2;" xml:space="preserve">
<style type="text/css">
	.st0{fill:#6D6E71;}
</style>
<circle class="st0" cx="143.4" cy="38.6" r="16.5"/>
<circle class="st0" cx="227.3" cy="38.6" r="16.5"/>
<rect x="445.8" y="413.2" class="st0" width="254.7" height="29.9"/>
<g>
	<path class="st0" d="M99.9,65.2v95.2c0,14.7-4.1,26.1-12.4,34c-8.3,8-19.5,11.9-33.5,11.9c-14.7,0-26.5-4.2-35.4-12.5
		c-8.9-8.4-13.3-20.2-13.3-35.6H39c0,5.8,1.2,10.3,3.6,13.2c2.4,3,5.8,4.5,10.4,4.5c4.1,0,7.3-1.3,9.6-4c2.3-2.7,3.4-6.5,3.4-11.5
		V65.2H99.9z"/>
	<path class="st0" d="M160.8,65.2v83.6c0,8.4,2.1,14.8,6.2,19.3c4.1,4.5,10.2,6.8,18.1,6.8c8,0,14.1-2.3,18.3-6.8
		c4.2-4.5,6.4-10.9,6.4-19.3V65.2h34v83.4c0,12.5-2.7,23-8,31.7c-5.3,8.6-12.4,15.1-21.4,19.5c-9,4.4-18.9,6.6-30,6.6
		c-11,0-20.9-2.2-29.6-6.5c-8.7-4.3-15.6-10.8-20.6-19.5c-5-8.7-7.6-19.3-7.6-31.8V65.2H160.8z"/>
	<path class="st0" d="M392.7,205h-34l-56.9-86.2V205h-34V65.2h34l56.9,86.6V65.2h34V205z"/>
	<path class="st0" d="M510.2,109.4c-2.5-4.6-6.1-8.2-10.8-10.6c-4.7-2.5-10.3-3.7-16.6-3.7c-11,0-19.8,3.6-26.5,10.8
		c-6.6,7.2-10,16.9-10,29c0,12.9,3.5,22.9,10.5,30.2c7,7.2,16.6,10.8,28.8,10.8c8.4,0,15.4-2.1,21.2-6.4c5.8-4.2,10-10.4,12.6-18.3
		h-43.2v-25.1h74.1v31.7c-2.5,8.5-6.8,16.4-12.8,23.7c-6,7.3-13.7,13.2-23,17.7c-9.3,4.5-19.8,6.8-31.5,6.8c-13.8,0-26.1-3-36.9-9.1
		c-10.8-6-19.2-14.4-25.3-25.2c-6-10.7-9.1-23-9.1-36.8c0-13.8,3-26.1,9.1-36.9c6-10.8,14.4-19.2,25.2-25.3c10.7-6,23-9.1,36.8-9.1
		c16.7,0,30.8,4,42.3,12.1c11.5,8.1,19.1,19.3,22.8,33.6H510.2z"/>
	<path class="st0" d="M656.1,180.3h-52.2l-8.4,24.7h-35.6l50.6-139.7h39.4L700.5,205h-36L656.1,180.3z M647.3,154L630,102.9
		L612.9,154H647.3z"/>
	<path class="st0" d="M140.3,315.2c5.9,7.6,8.9,16.3,8.9,26c0,14.1-4.9,25.2-14.7,33.5c-9.8,8.2-23.5,12.3-41.1,12.3H14.9V218.6
		h75.8c17.1,0,30.5,3.9,40.2,11.7c9.7,7.8,14.5,18.5,14.5,31.9c0,9.9-2.6,18.1-7.8,24.7c-5.2,6.6-12.1,11.1-20.7,13.7
		C126.5,302.7,134.4,307.6,140.3,315.2z M55.9,286.7h26.9c6.7,0,11.9-1.5,15.5-4.4c3.6-3,5.4-7.3,5.4-13.1s-1.8-10.2-5.4-13.2
		c-3.6-3-8.8-4.6-15.5-4.6H55.9V286.7z M102,349.2c3.8-3.1,5.6-7.6,5.6-13.5c0-5.9-2-10.6-5.9-13.9c-3.9-3.4-9.3-5-16.2-5H55.9v37.2
		h30.2C93,353.9,98.3,352.3,102,349.2z"/>
	<path class="st0" d="M209,377.6c-13.2-7.4-23.7-17.6-31.4-30.8c-7.8-13.2-11.6-28-11.6-44.5c0-16.5,3.9-31.3,11.6-44.4
		c7.8-13.1,18.2-23.3,31.4-30.7c13.2-7.4,27.7-11,43.5-11c15.8,0,30.3,3.7,43.5,11c13.2,7.4,23.6,17.6,31.2,30.7
		c7.6,13.1,11.4,27.9,11.4,44.4c0,16.5-3.8,31.3-11.5,44.5c-7.7,13.2-18.1,23.5-31.2,30.8c-13.1,7.4-27.6,11-43.4,11
		C236.7,388.7,222.2,385,209,377.6z M284.8,337.8c8.1-9,12.1-20.8,12.1-35.5c0-14.9-4-26.7-12.1-35.6c-8.1-8.9-18.8-13.3-32.3-13.3
		c-13.6,0-24.4,4.4-32.5,13.2c-8.1,8.8-12.1,20.7-12.1,35.7c0,14.9,4,26.7,12.1,35.6c8.1,8.9,18.9,13.3,32.5,13.3
		C265.9,351.2,276.7,346.8,284.8,337.8z"/>
	<path class="st0" d="M397.5,377.6c-13.2-7.4-23.7-17.6-31.4-30.8c-7.8-13.2-11.6-28-11.6-44.5c0-16.5,3.9-31.3,11.6-44.4
		c7.8-13.1,18.2-23.3,31.4-30.7c13.2-7.4,27.7-11,43.5-11c15.8,0,30.3,3.7,43.5,11c13.2,7.4,23.6,17.6,31.2,30.7
		c7.6,13.1,11.4,27.9,11.4,44.4c0,16.5-3.8,31.3-11.5,44.5c-7.7,13.2-18.1,23.5-31.2,30.8c-13.1,7.4-27.6,11-43.4,11
		C425.2,388.7,410.6,385,397.5,377.6z M473.2,337.8c8.1-9,12.1-20.8,12.1-35.5c0-14.9-4-26.7-12.1-35.6
		c-8.1-8.9-18.8-13.3-32.3-13.3c-13.6,0-24.4,4.4-32.5,13.2c-8.1,8.8-12.1,20.7-12.1,35.7c0,14.9,4,26.7,12.1,35.6
		c8.1,8.9,18.9,13.3,32.5,13.3C454.4,351.2,465.2,346.8,473.2,337.8z"/>
	<path class="st0" d="M700.4,387h-41l-68.6-103.8V387h-41V218.6h41L659.4,323V218.6h41V387z"/>
</g>
</svg>
