<?xml version="1.0" encoding="utf-8"?>
<!-- Generator: Adobe Illustrator 27.7.0, SVG Export Plug-In . SVG Version: 6.00 Build 0)  -->
<svg version="1.1" id="Layer_1" xmlns="http://www.w3.org/2000/svg" xmlns:xlink="http://www.w3.org/1999/xlink" x="0px" y="0px"
	 viewBox="0 0 715.3 461.2" style="enable-background:new 0 0 715.3 461.2;" xml:space="preserve">
<style type="text/css">
	.st0{fill:#6D6E71;}
	.st1{font-family:'Poppins-Bold';}
	.st2{font-size:199.0607px;}
	.st3{font-size:239.7951px;}
</style>
<g>
	<path class="st0" d="M-577.9-125.8V21.8c0,22.9-6.4,40.5-19.3,52.8c-12.9,12.4-30.2,18.5-52,18.5c-21.8,0-41.2-6.5-55-19.5
		c-13.8-13-20.7-31.4-20.7-55.3h52.5c0,9.1,1.9,15.9,5.6,20.5s9.1,6.9,16.1,6.9c6.4,0,11.3-2.1,14.8-6.2s5.2-10.1,5.2-17.9v-147.4
		H-577.9L-577.9-125.8z"/>
	<path class="st0" d="M-483.4-125.8V3.9c0,13,3.2,23,9.6,30s15.8,10.5,28.1,10.5s21.8-3.5,28.4-10.5s9.9-17,9.9-30v-129.7h52.8V3.6
		c0,19.4-4.1,35.7-12.4,49.1c-8.2,13.4-19.3,23.5-33.2,30.3c-13.9,6.8-29.4,10.2-46.5,10.2s-32.4-3.3-45.9-10s-24.1-16.8-32-30.3
		c-7.8-13.5-11.7-29.9-11.7-49.3v-129.4H-483.4L-483.4-125.8z"/>
	<path class="st0" d="M-123.6,91h-52.8l-88.3-133.7V91h-52.8v-216.8h52.8l88.3,134.3v-134.3h52.8V91L-123.6,91z"/>
	<path class="st0" d="M-607.9,192.7c-3.9-7.2-9.5-12.7-16.8-16.5c-7.3-3.8-15.9-5.7-25.8-5.7c-17.1,0-30.8,5.6-41.1,16.8
		s-15.4,26.2-15.4,44.9c0,20,5.4,35.6,16.2,46.8s25.7,16.8,44.6,16.8c13,0,23.9-3.3,32.9-9.9s15.5-16.1,19.6-28.4h-67v-38.9h114.9
		v49.1c-3.9,13.2-10.5,25.4-19.9,36.8c-9.4,11.3-21.3,20.5-35.7,27.5c-14.4,7-30.7,10.5-48.8,10.5c-21.4,0-40.5-4.7-57.3-14
		s-29.8-22.4-39.2-39.1c-9.4-16.7-14-35.7-14-57.1s4.7-40.5,14-57.3c9.3-16.8,22.4-29.9,39.1-39.2s35.7-14,57.1-14
		c25.9,0,47.8,6.3,65.6,18.8s29.6,30,35.4,52.2L-607.9,192.7L-607.9,192.7z"/>
	<path class="st0" d="M-381.5,302.7h-80.9l-13,38.3h-55.3l78.4-216.8h61.2l78.4,216.8h-55.9L-381.5,302.7L-381.5,302.7z
		 M-395.1,261.9l-26.9-79.4l-26.6,79.4H-395.1z"/>
	<path class="st0" d="M-127.3,248.5c7.6,9.8,11.4,21,11.4,33.5c0,18.1-6.3,32.5-19,43.1c-12.7,10.6-30.3,15.9-53,15.9h-101V124.2
		h97.6c22,0,39.3,5,51.7,15.1c12.5,10.1,18.7,23.8,18.7,41.1c0,12.8-3.3,23.4-10,31.8c-6.7,8.4-15.6,14.3-26.7,17.6
		C-145,232.5-134.9,238.7-127.3,248.5L-127.3,248.5z M-236,211.9h34.6c8.7,0,15.3-1.9,19.9-5.7s7-9.4,7-16.8s-2.3-13.1-7-17
		c-4.6-3.9-11.3-5.9-19.9-5.9H-236V211.9L-236,211.9z M-176.6,292.3c4.8-4,7.3-9.8,7.3-17.5s-2.5-13.6-7.6-17.9s-12-6.5-20.8-6.5
		H-236v47.9h38.9C-188.3,298.3-181.4,296.3-176.6,292.3L-176.6,292.3z"/>
	<path class="st0" d="M-756.6,578.9c-17-9.5-30.5-22.7-40.5-39.7s-15-36.1-15-57.3s5-40.2,15-57.1c10-16.9,23.5-30.1,40.5-39.5
		s35.7-14.2,56-14.2s39.1,4.7,56.1,14.2s30.4,22.7,40.2,39.5c9.8,16.9,14.7,35.9,14.7,57.1s-4.9,40.3-14.8,57.3
		c-9.9,17-23.3,30.2-40.1,39.7c-16.9,9.5-35.5,14.2-55.9,14.2C-720.8,593.1-739.6,588.4-756.6,578.9L-756.6,578.9z M-659,527.6
		c10.4-11.5,15.6-26.8,15.6-45.7s-5.2-34.4-15.6-45.9c-10.4-11.4-24.2-17.1-41.5-17.1c-17.3,0-31.5,5.7-41.8,17
		c-10.4,11.3-15.6,26.7-15.6,46s5.2,34.4,15.6,45.9c10.4,11.4,24.3,17.1,41.8,17.1S-669.4,539.2-659,527.6L-659,527.6z"/>
	<path class="st0" d="M-513.8,578.9c-17-9.5-30.5-22.7-40.5-39.7s-15-36.1-15-57.3s5-40.2,15-57.1c10-16.9,23.5-30.1,40.5-39.5
		s35.7-14.2,56-14.2s39.1,4.7,56,14.2c17,9.5,30.4,22.7,40.1,39.5s14.7,35.9,14.7,57.1s-4.9,40.3-14.8,57.3s-23.3,30.2-40.1,39.7
		c-16.9,9.5-35.5,14.2-55.9,14.2S-496.8,588.4-513.8,578.9L-513.8,578.9z M-416.2,527.6c10.4-11.5,15.6-26.8,15.6-45.7
		s-5.2-34.4-15.6-45.9c-10.4-11.4-24.2-17.1-41.5-17.1s-31.5,5.7-41.9,17s-15.6,26.7-15.6,46s5.2,34.4,15.6,45.9
		c10.4,11.4,24.4,17.1,41.9,17.1S-426.6,539.2-416.2,527.6L-416.2,527.6z"/>
	<path class="st0" d="M-123.6,591h-52.8l-88.3-133.7V591h-52.8V374.2h52.8l88.3,134.3V374.2h52.8V591L-123.6,591z"/>
</g>
<circle class="st0" cx="-509.7" cy="-163.6" r="25.3"/>
<circle class="st0" cx="-381.3" cy="-163.6" r="25.3"/>
<rect x="-459.7" y="620.7" class="st0" width="336.1" height="26.3"/>
<circle class="st0" cx="143.4" cy="38.6" r="16.5"/>
<circle class="st0" cx="227.3" cy="38.6" r="16.5"/>
<rect x="445.8" y="413.2" class="st0" width="254.7" height="29.9"/>
<text transform="matrix(1 0 0 1 -8.602368e-04 204.9773)"><tspan x="0" y="0" class="st0 st1 st2">JUNGA</tspan><tspan x="0" y="182" class="st0 st1 st3">BOON</tspan></text>
</svg>
