<?xml version="1.0" encoding="utf-8"?>
<!-- Generator: Adobe Illustrator 27.7.0, SVG Export Plug-In . SVG Version: 6.00 Build 0)  -->
<svg version="1.1" id="Layer_1" xmlns="http://www.w3.org/2000/svg" xmlns:xlink="http://www.w3.org/1999/xlink" x="0px" y="0px"
	 viewBox="0 0 712.6 835.9" style="enable-background:new 0 0 712.6 835.9;" xml:space="preserve">
<style type="text/css">
	.st0{fill:#6D6E71;}
</style>
<g>
	<path class="st0" d="M239.2,63.1v147.6c0,22.9-6.4,40.5-19.3,52.8c-12.9,12.4-30.2,18.5-52,18.5s-41.2-6.5-55-19.5
		c-13.8-13-20.7-31.4-20.7-55.3h52.5c0,9.1,1.9,15.9,5.6,20.5c3.7,4.6,9.1,6.9,16.1,6.9c6.4,0,11.3-2.1,14.8-6.2s5.2-10.1,5.2-17.9
		V63.1H239.2L239.2,63.1z"/>
	<path class="st0" d="M333.7,63.1v129.7c0,13,3.2,23,9.6,30s15.8,10.5,28.1,10.5s21.8-3.5,28.4-10.5s9.9-17,9.9-30V63.1h52.8v129.4
		c0,19.4-4.1,35.7-12.4,49.1c-8.2,13.4-19.3,23.5-33.2,30.3c-13.9,6.8-29.4,10.2-46.5,10.2s-32.4-3.3-45.9-10
		c-13.5-6.7-24.1-16.8-32-30.3c-7.8-13.5-11.7-29.9-11.7-49.3V63.1H333.7L333.7,63.1z"/>
	<path class="st0" d="M693.5,279.9h-52.8l-88.3-133.7v133.7h-52.8V63.1h52.8l88.3,134.3V63.1h52.8V279.9L693.5,279.9z"/>
	<path class="st0" d="M209.2,381.6c-3.9-7.2-9.5-12.7-16.8-16.5c-7.3-3.8-15.9-5.7-25.8-5.7c-17.1,0-30.8,5.6-41.1,16.8
		s-15.4,26.2-15.4,44.9c0,20,5.4,35.6,16.2,46.8s25.7,16.8,44.6,16.8c13,0,23.9-3.3,32.9-9.9s15.5-16.1,19.6-28.4h-67v-38.9h114.9
		v49.1c-3.9,13.2-10.5,25.4-19.9,36.8c-9.4,11.3-21.3,20.5-35.7,27.5s-30.7,10.5-48.8,10.5c-21.4,0-40.5-4.7-57.3-14
		S79.8,495,70.4,478.3c-9.4-16.7-14-35.7-14-57.1s4.7-40.5,14-57.3s22.4-29.9,39.1-39.2s35.7-14,57.1-14c25.9,0,47.8,6.3,65.6,18.8
		s29.6,30,35.4,52.2L209.2,381.6L209.2,381.6z"/>
	<path class="st0" d="M435.6,491.6h-80.9l-13,38.3h-55.3l78.4-216.8H426l78.4,216.8h-55.9L435.6,491.6L435.6,491.6z M422,450.8
		l-26.9-79.4l-26.6,79.4H422z"/>
	<path class="st0" d="M689.8,437.4c7.6,9.8,11.4,21,11.4,33.5c0,18.1-6.3,32.5-19,43.1c-12.7,10.6-30.3,15.9-53,15.9h-101V313.1
		h97.6c22,0,39.3,5,51.7,15.1c12.5,10.1,18.7,23.8,18.7,41.1c0,12.8-3.3,23.4-10,31.8s-15.6,14.3-26.7,17.6
		C672.1,421.4,682.2,427.6,689.8,437.4L689.8,437.4z M581.1,400.8h34.6c8.7,0,15.3-1.9,19.9-5.7s7-9.4,7-16.8s-2.3-13.1-7-17
		c-4.6-3.9-11.3-5.9-19.9-5.9h-34.6V400.8L581.1,400.8z M640.5,481.2c4.8-4,7.3-9.8,7.3-17.5s-2.5-13.6-7.6-17.9s-12-6.5-20.8-6.5
		h-38.3v47.9H620C628.8,487.2,635.7,485.2,640.5,481.2L640.5,481.2z"/>
	<path class="st0" d="M60.5,767.8c-17-9.5-30.5-22.7-40.5-39.7s-15-36.1-15-57.3s5-40.2,15-57.1c10-16.9,23.5-30.1,40.5-39.5
		s35.7-14.2,56-14.2s39.1,4.7,56.1,14.2c17,9.5,30.4,22.7,40.2,39.5c9.8,16.9,14.7,35.9,14.7,57.1s-4.9,40.3-14.8,57.3
		c-9.9,17-23.3,30.2-40.1,39.7c-16.9,9.5-35.5,14.2-55.9,14.2S77.5,777.3,60.5,767.8L60.5,767.8z M158.1,716.5
		c10.4-11.5,15.6-26.8,15.6-45.7s-5.2-34.4-15.6-45.9c-10.4-11.4-24.2-17.1-41.5-17.1s-31.5,5.7-41.8,17
		c-10.4,11.3-15.6,26.7-15.6,46s5.2,34.4,15.6,45.9c10.4,11.4,24.3,17.1,41.8,17.1S147.7,728.1,158.1,716.5L158.1,716.5z"/>
	<path class="st0" d="M303.3,767.8c-17-9.5-30.5-22.7-40.5-39.7s-15-36.1-15-57.3s5-40.2,15-57.1c10-16.9,23.5-30.1,40.5-39.5
		s35.7-14.2,56-14.2s39.1,4.7,56,14.2c17,9.5,30.4,22.7,40.1,39.5s14.7,35.9,14.7,57.1s-4.9,40.3-14.8,57.3s-23.3,30.2-40.1,39.7
		c-16.9,9.5-35.5,14.2-55.9,14.2S320.3,777.3,303.3,767.8L303.3,767.8z M400.9,716.5c10.4-11.5,15.6-26.8,15.6-45.7
		s-5.2-34.4-15.6-45.9c-10.4-11.4-24.2-17.1-41.5-17.1s-31.5,5.7-41.9,17c-10.4,11.3-15.6,26.7-15.6,46s5.2,34.4,15.6,45.9
		c10.4,11.4,24.4,17.1,41.9,17.1S390.5,728.1,400.9,716.5L400.9,716.5z"/>
	<path class="st0" d="M693.5,779.9h-52.8l-88.3-133.7v133.7h-52.8V563.1h52.8l88.3,134.3V563.1h52.8V779.9L693.5,779.9z"/>
</g>
<circle class="st0" cx="307.4" cy="25.3" r="25.3"/>
<circle class="st0" cx="435.8" cy="25.3" r="25.3"/>
<rect x="357.4" y="809.6" class="st0" width="336.1" height="26.3"/>
</svg>
